Normalized EMG Linear Envelopes
nRows=214
nColumns=4

endheader
time	 med_gas_r	  soleus_r	 tib_ant_r	
2.72765	  0.059743	  0.074086	  0.009505	
2.76091	  0.058599	  0.073206	  0.009648	
2.79418	  0.057329	  0.072551	  0.009749	
2.82744	  0.055887	  0.072260	  0.009770	
2.8607	  0.054432	  0.072411	  0.009704	
2.89397	  0.053255	  0.073004	  0.009590	
2.92723	  0.052634	  0.073979	  0.009491	
2.9605	  0.052711	  0.075232	  0.009462	
2.99376	  0.053470	  0.076643	  0.009525	
3.02702	  0.054789	  0.078107	  0.009662	
3.06029	  0.056498	  0.079575	  0.009830	
3.09355	  0.058397	  0.081048	  0.009990	
3.12682	  0.060261	  0.082513	  0.010113	
3.16008	  0.061885	  0.083864	  0.010192	
3.19334	  0.063136	  0.084911	  0.010231	
3.22661	  0.063978	  0.085487	  0.010243	
3.25987	  0.064430	  0.085568	  0.010242	
3.29314	  0.064534	  0.085292	  0.010248	
3.3264	  0.064369	  0.084847	  0.010277	
3.35966	  0.064098	  0.084335	  0.010329	
3.39293	  0.063934	  0.083750	  0.010388	
3.42619	  0.064026	  0.083080	  0.010429	
3.45946	  0.064357	  0.082440	  0.010429	
3.49272	  0.064777	  0.082061	  0.010372	
3.52598	  0.065131	  0.082128	  0.010251	
3.55925	  0.065355	  0.082616	  0.010075	
3.59251	  0.065442	  0.083266	  0.009868	
3.62578	  0.065366	  0.083760	  0.009666	
3.65904	  0.065078	  0.083949	  0.009499	
3.6923	  0.064590	  0.083948	  0.009380	
3.72557	  0.064040	  0.084014	  0.009311	
3.75883	  0.063687	  0.084369	  0.009288	
3.7921	  0.063859	  0.085109	  0.009320	
3.82536	  0.064933	  0.086242	  0.009411	
3.85862	  0.067307	  0.087726	  0.009553	
3.89189	  0.071272	  0.089413	  0.009710	
3.92515	  0.076753	  0.090986	  0.009833	
3.95842	  0.083076	  0.092038	  0.009887	
3.99168	  0.088972	  0.092283	  0.009869	
4.02494	  0.092978	  0.091725	  0.009806	
4.05821	  0.094083	  0.090641	  0.009730	
4.09147	  0.092198	  0.089416	  0.009662	
4.12474	  0.088120	  0.088369	  0.009605	
4.158	  0.083013	  0.087678	  0.009557	
4.19126	  0.077857	  0.087354	  0.009516	
4.22453	  0.073216	  0.087265	  0.009485	
4.25779	  0.069354	  0.087207	  0.009465	
4.29106	  0.066426	  0.087010	  0.009449	
4.32432	  0.064536	  0.086610	  0.009425	
4.35758	  0.063671	  0.086039	  0.009392	
4.39085	  0.063644	  0.085360	  0.009363	
4.42411	  0.064124	  0.084637	  0.009360	
4.45738	  0.064724	  0.083969	  0.009394	
4.49064	  0.065130	  0.083514	  0.009460	
4.5239	  0.065189	  0.083438	  0.009538	
4.55717	  0.064938	  0.083835	  0.009599	
4.59043	  0.064531	  0.084701	  0.009616	
4.6237	  0.064150	  0.086003	  0.009576	
4.65696	  0.063963	  0.087743	  0.009489	
4.69022	  0.064137	  0.089914	  0.009393	
4.72349	  0.064843	  0.092385	  0.009338	
4.75675	  0.066234	  0.094833	  0.009379	
4.79002	  0.068390	  0.096790	  0.009570	
4.82328	  0.071245	  0.097792	  0.009947	
4.85654	  0.074492	  0.097527	  0.010524	
4.88981	  0.077553	  0.095945	  0.011268	
4.92307	  0.079721	  0.093294	  0.012093	
4.95634	  0.080461	  0.090088	  0.012889	
4.9896	  0.079682	  0.086971	  0.013587	
5.02286	  0.077766	  0.084523	  0.014199	
5.05613	  0.075356	  0.083091	  0.014811	
5.08939	  0.073073	  0.082743	  0.015507	
5.12266	  0.071307	  0.083347	  0.016292	
5.15592	  0.070159	  0.084710	  0.017105	
5.18918	  0.069514	  0.086660	  0.017899	
5.22245	  0.069215	  0.089040	  0.018727	
5.25571	  0.069256	  0.091636	  0.019748	
5.28898	  0.069842	  0.094102	  0.021137	
5.32224	  0.071251	  0.096000	  0.022999	
5.3555	  0.073549	  0.096956	  0.025386	
5.38877	  0.076383	  0.096869	  0.028422	
5.42203	  0.079030	  0.095997	  0.032357	
5.4553	  0.080753	  0.094841	  0.037399	
5.48856	  0.081242	  0.093903	  0.043371	
5.52182	  0.080847	  0.093553	  0.049530	
5.55509	  0.080417	  0.094050	  0.054833	
5.58835	  0.080875	  0.095628	  0.058544	
5.62162	  0.082849	  0.098469	  0.060680	
5.65488	  0.086535	  0.102583	  0.061888	
5.68814	  0.091784	  0.107775	  0.062890	
5.72141	  0.098256	  0.113774	  0.064038	
5.75467	  0.105506	  0.120418	  0.065290	
5.78794	  0.112968	  0.127713	  0.066466	
5.8212	  0.119939	  0.135729	  0.067477	
5.85446	  0.125745	  0.144458	  0.068411	
5.88773	  0.130137	  0.153762	  0.069537	
5.92099	  0.133587	  0.163440	  0.071237	
5.95426	  0.137076	  0.173390	  0.073855	
5.98752	  0.141461	  0.183758	  0.077555	
6.02078	  0.147008	  0.194903	  0.082376	
6.05405	  0.153480	  0.207127	  0.088370	
6.08731	  0.160515	  0.220295	  0.095554	
6.12058	  0.167772	  0.233682	  0.103584	
6.15384	  0.174746	  0.246169	  0.111546	
6.1871	  0.180666	  0.256644	  0.118244	
6.22037	  0.184724	  0.264334	  0.122851	
6.25363	  0.186449	  0.268922	  0.125336	
6.2869	  0.185864	  0.270556	  0.126289	
6.32016	  0.183384	  0.269864	  0.126384	
6.35342	  0.179633	  0.268017	  0.126046	
6.38669	  0.175369	  0.266696	  0.125576	
6.41995	  0.171449	  0.267783	  0.125412	
6.45322	  0.168698	  0.272686	  0.126096	
6.48648	  0.167626	  0.281542	  0.127921	
6.51974	  0.168229	  0.292948	  0.130644	
6.55301	  0.170149	  0.304665	  0.133591	
6.58627	  0.173076	  0.314952	  0.136124	
6.61954	  0.176973	  0.323504	  0.138110	
6.6528	  0.181845	  0.331202	  0.140107	
6.68606	  0.187377	  0.339057	  0.143156	
6.71933	  0.192902	  0.347499	  0.148284	
6.75259	  0.197773	  0.356652	  0.155956	
6.78586	  0.201794	  0.367016	  0.165743	
6.81912	  0.205317	  0.379436	  0.176384	
6.85238	  0.208905	  0.394072	  0.186259	
6.88565	  0.212762	  0.409390	  0.194028	
6.91891	  0.216390	  0.422407	  0.199115	
6.95218	  0.218789	  0.430214	  0.201806	
6.98544	  0.219106	  0.431488	  0.202939	
7.0187	  0.217261	  0.426822	  0.203394	
7.05197	  0.214123	  0.417988	  0.203669	
7.08523	  0.211108	  0.407113	  0.203836	
7.1185	  0.209418	  0.396361	  0.203904	
7.15176	  0.209425	  0.387833	  0.204286	
7.18502	  0.210596	  0.383222	  0.205959	
7.21829	  0.211992	  0.383294	  0.210121	
7.25155	  0.212891	  0.387594	  0.217621	
7.28482	  0.213083	  0.394599	  0.228550	
7.31808	  0.212762	  0.402200	  0.242146	
7.35134	  0.212242	  0.408374	  0.256931	
7.38461	  0.211739	  0.411931	  0.271060	
7.41787	  0.211294	  0.413132	  0.282988	
7.45114	  0.210738	  0.413788	  0.292347	
7.4844	  0.209755	  0.416567	  0.300390	
7.51766	  0.208135	  0.423736	  0.309355	
7.55093	  0.206086	  0.436043	  0.320854	
7.58419	  0.204312	  0.452442	  0.334351	
7.61746	  0.203732	  0.470819	  0.346986	
7.65072	  0.205062	  0.489125	  0.355129	
7.68398	  0.208560	  0.506073	  0.356682	
7.71725	  0.214014	  0.521026	  0.352387	
7.75051	  0.220885	  0.533413	  0.345145	
7.78378	  0.228553	  0.542390	  0.338051	
7.81704	  0.236642	  0.547203	  0.332802	
7.8503	  0.245309	  0.548070	  0.329502	
7.88357	  0.255134	  0.546676	  0.327489	
7.91683	  0.266435	  0.545524	  0.326208	
7.9501	  0.278459	  0.546451	  0.325591	
7.98336	  0.289256	  0.549636	  0.325972	
8.01662	  0.296482	  0.553992	  0.327729	
8.04989	  0.298467	  0.558323	  0.330891	
8.08315	  0.294734	  0.561865	  0.334990	
8.11642	  0.285896	  0.563851	  0.339297	
8.14968	  0.273472	  0.563103	  0.343146	
8.18294	  0.259835	  0.558672	  0.346010	
8.21621	  0.247948	  0.551142	  0.347431	
8.24947	  0.240600	  0.543220	  0.347171	
8.28274	  0.239477	  0.538881	  0.345555	
8.316	  0.244599	  0.541743	  0.343524	
8.34926	  0.254404	  0.553784	  0.342155	
8.38253	  0.266383	  0.574700	  0.342111	
8.41579	  0.278044	  0.601694	  0.343678	
8.44906	  0.287776	  0.629855	  0.347333	
8.48232	  0.295198	  0.653647	  0.354063	
8.51558	  0.300926	  0.669180	  0.364805	
8.54885	  0.306089	  0.675698	  0.379442	
8.58211	  0.311857	  0.675005	  0.396504	
8.61538	  0.318962	  0.669465	  0.414089	
8.64864	  0.327263	  0.660618	  0.431112	
8.6819	  0.335672	  0.649601	  0.447604	
8.71517	  0.342634	  0.638422	  0.463923	
8.74843	  0.346901	  0.630224	  0.480093	
8.7817	  0.348063	  0.627924	  0.496165	
8.81496	  0.346493	  0.632351	  0.512991	
8.84822	  0.342845	  0.641463	  0.532112	
8.88149	  0.337548	  0.651175	  0.554427	
8.91475	  0.330660	  0.657120	  0.578725	
8.94802	  0.322095	  0.656244	  0.601453	
8.98128	  0.311978	  0.647589	  0.618168	
9.01454	  0.300907	  0.632253	  0.625900	
9.04781	  0.289999	  0.612802	  0.624929	
9.08107	  0.280700	  0.592438	  0.618769	
9.11434	  0.274398	  0.574101	  0.612384	
9.1476	  0.271976	  0.559746	  0.609914	
9.18086	  0.273513	  0.549993	  0.613318	
9.21413	  0.278330	  0.544214	  0.622381	
9.24739	  0.285319	  0.540993	  0.635653	
9.28066	  0.293338	  0.538904	  0.651557	
9.31392	  0.301510	  0.537472	  0.668973	
9.34718	  0.309263	  0.537791	  0.686956	
9.38045	  0.316097	  0.542165	  0.703976	
9.41371	  0.321287	  0.552682	  0.717670	
9.44698	  0.323918	  0.569659	  0.725806	
9.48024	  0.323400	  0.591219	  0.727830	
9.5135	  0.319994	  0.614371	  0.725491	
9.54677	  0.314777	  0.636564	  0.721681	
9.58003	  0.309005	  0.656385	  0.718287	
9.6133	  0.303521	  0.673057	  0.714850	
9.64656	  0.298696	  0.685519	  0.709204	
9.67982	  0.294759	  0.692102	  0.699567	
9.71309	  0.291950	  0.691111	  0.686228	
9.74635	  0.290298	  0.681809	  0.671422	
9.77962	  0.289399	  0.664997	  0.657705	
9.81288	  0.288596	  0.642609	  0.646406	
